<svg xmlns="http://www.w3.org/2000/svg" xmlns:xlink="http://www.w3.org/1999/xlink" width="126" height="173" viewBox="0 0 126 173" fill="none">
<rect x="1.5" y="1.5" width="123" height="170" stroke="rgba(255, 255, 255, 1)" stroke-width="3"      fill="#CED8F5" >
</rect>
<g >
<path     fill="#5F82ED"  d="M40.316 122.084L54.684 122.084L54.684 123.46L40.316 123.46L40.316 122.084ZM70.62 118.772L70.62 120.084L67.276 120.084L67.276 127.844Q67.276 128.724 67.06 129.22Q66.844 129.716 66.332 129.948Q65.82 130.18 64.908 130.212L64.3 130.228Q63.324 130.228 62.364 130.084L62.06 128.708Q63.484 128.916 64.364 128.916Q65.036 128.916 65.348 128.804Q65.66 128.692 65.772 128.38Q65.884 128.068 65.884 127.38L65.884 120.084L56.444 120.084L56.444 118.772L65.884 118.772L65.884 115.892L67.276 115.892L67.276 118.772L70.62 118.772ZM62.076 126.292Q61.372 125.444 60.148 124.116Q58.924 122.788 58.316 122.212L59.292 121.252Q59.98 121.892 61.212 123.18Q62.444 124.468 63.1 125.236L62.076 126.292ZM81.756 118.5Q81.58 119.22 81.236 119.716Q80.892 120.212 80.34 120.612Q79.788 121.012 78.844 121.524L78.22 120.516Q79.292 119.988 79.828 119.436Q80.364 118.884 80.636 118.068Q80.7 117.876 80.716 117.78L78.604 117.78L78.604 116.644L85.916 116.644Q85.9 117.348 85.836 118.26Q85.772 119.172 85.692 119.7Q85.564 120.516 85.188 120.836Q84.812 121.156 83.932 121.156Q83.196 121.172 82.508 121.092L82.316 120.02Q82.972 120.116 83.596 120.116Q84.124 120.116 84.332 119.94Q84.54 119.764 84.588 119.364Q84.7 118.164 84.7 117.78L81.916 117.78Q81.804 118.308 81.756 118.5ZM73.196 116.756L77.676 116.756L77.676 125.988L73.196 125.988L73.196 116.756ZM76.508 120.82L76.508 117.78L74.348 117.78L74.348 120.82L76.508 120.82ZM74.348 121.924L74.348 124.868L76.508 124.868L76.508 121.924L74.348 121.924ZM79.068 121.988L85.692 121.988L85.692 126.116L79.068 126.116L79.068 121.988ZM80.236 125.06L84.556 125.06L84.556 123.044L80.236 123.044L80.236 125.06ZM84.604 126.532Q85.132 127.284 85.732 128.268Q86.332 129.252 86.684 129.908L85.5 130.548Q85.004 129.444 83.548 127.108L84.604 126.532ZM72.492 130.084Q72.956 129.38 73.308 128.564Q73.66 127.748 74.06 126.644L75.196 127.076Q74.412 129.508 73.724 130.66L72.492 130.084ZM81.244 126.852Q81.532 127.492 81.892 128.428Q82.252 129.364 82.476 130.052L81.276 130.388Q81.084 129.7 80.764 128.788Q80.444 127.876 80.156 127.172L81.244 126.852ZM77.804 126.916Q78.172 128.26 78.588 130.244L77.324 130.484Q77.196 129.46 76.636 127.14L77.804 126.916Z">
</path>
</g>
<path d="M62.1959 31.5C69.5873 31.5 74.2609 32.8716 75.7532 34.6687C76.3754 35.4116 75.9818 35.6973 75.442 35.8752L74.7753 36.0657C74.2482 36.2181 73.918 36.4086 74.6419 36.9991C78.6551 40.2821 82.1413 48.7339 82.1413 55.8713C82.1413 65.4408 77.6328 73.7212 71.0542 77.7153L71.1621 77.3279C71.0512 77.6641 70.9469 78.0025 70.849 78.3428C70.7512 78.6831 70.66 79.0252 70.5756 79.3691C70.491 79.713 70.4131 80.0583 70.342 80.4052C70.2708 80.7521 70.2065 81.1002 70.1488 81.4496C70.0911 81.799 70.0403 82.1493 69.9963 82.5007C69.9522 82.852 69.9149 83.204 69.8845 83.5569C69.8541 83.9096 69.8304 84.2628 69.8137 84.6165C69.797 84.9702 69.7872 85.3241 69.7842 85.6781L69.8223 86.6306L70.1461 86.6306L91.3361 94.3968C93.5332 95.2731 95 97.5909 95 100.194L95 107.7L31.5 107.7L31.5 100.213C31.5 97.6035 32.9796 95.2731 35.1957 94.4094L54.487 87.2021C54.5378 86.7132 54.5631 86.2052 54.5631 85.6781C54.5631 82.9096 54.2139 80.2807 53.5091 77.8042C46.8416 73.8545 42.2506 65.5169 42.2506 55.8713C42.2506 42.4093 51.185 31.5 62.1959 31.5Z"   fill="#9AB3FF" >
</path>
<path    stroke="rgba(154, 179, 255, 1)" stroke-width="2"    d="M11.5 23.5L11.5 11.5L23.5 11.5">
</path>
<path    stroke="rgba(154, 179, 255, 1)" stroke-width="2"    d="M11.5 149.5L11.5 161.5L23.5 161.5">
</path>
<path    stroke="rgba(154, 179, 255, 1)" stroke-width="2"    d="M114.5 23.5L114.5 11.5L102.5 11.5">
</path>
<path    stroke="rgba(154, 179, 255, 1)" stroke-width="2"    d="M114.5 149.5L114.5 161.5L102.5 161.5">
</path>
</svg>
