<?xml version="1.0" standalone="no"?><!DOCTYPE svg PUBLIC "-//W3C//DTD SVG 1.1//EN" "http://www.w3.org/Graphics/SVG/1.1/DTD/svg11.dtd"><svg t="1705382897434" class="icon" viewBox="0 0 1024 1024" version="1.1" xmlns="http://www.w3.org/2000/svg" p-id="4231" xmlns:xlink="http://www.w3.org/1999/xlink" width="200" height="200"><path d="M320 64H64v256h256V64z m64-64v384H0V0h384zM128 128h128v128H128z m832-64h-256v256h256V64z m64-64v384h-384V0h384z m-256 128h128v128h-128z m-448 576H64v256h256v-256z m64-64v384H0v-384h384z m-256 128h128v128H128zM448 0h64v64H448z m64 64h64v64H512zM448 128h64v64H448z m64 64h64v64H512zM448 256h64v64H448z m64 64h64v64H512zM448 384h64v64H448z m0 128h64v64H448z m64 64h64v64H512z m-64 64h64v64H448z m64 64h64v64H512z m-64 64h64v64H448z m64 64h64v64H512z m-64 64h64v64H448z m64 64h64v64H512z m448-448h64v64h-64zM64 512h64v64H64z m64-64h64v64H128zM0 448h64v64H0z m256 0h64v64H256z m64 64h64v64H320z m64-64h64v64H384z m192 64h64v64H576z m64-64h64v64h-64z m64 64h64v64h-64z m64-64h64v64h-64z m64 64h64v64h-64z m64-64h64v64h-64z m64 192h64v64h-64z m-384 0h64v64H576z m64-64h64v64h-64z m64 64h64v64h-64z m128 0h64v64h-64z m64-64h64v64h-64z m64 192h64v64h-64z m-384 0h64v64H576z m64-64h64v64h-64z m128 0h64v64h-64z m64 64h64v64h-64z m64-64h64v64h-64z m64 192h64v64h-64z m-320-64h64v64h-64z m64 64h64v64h-64z m64-64h64v64h-64z m64 64h64v64h-64z m-192 64h64v64h-64z m128 0h64v64h-64z m128 0h64v64h-64z" fill="" p-id="4232"></path></svg>